<?xml version="1.0" standalone="no"?>
<!DOCTYPE svg PUBLIC "-//W3C//DTD SVG 20010904//EN"
 "http://www.w3.org/TR/2001/REC-SVG-20010904/DTD/svg10.dtd">
<svg version="1.0" xmlns="http://www.w3.org/2000/svg"
 width="196pt" height="193pt" viewBox="200 127 196 193"
 preserveAspectRatio="xMidYMid meet">
<g transform="translate(0.000000,450.000000) scale(0.100000,-0.100000)"
fill="#d1fae5" stroke="none">
<path d="M3200 3169 c0 -61 -27 -155 -66 -229 -88 -168 -238 -273 -434 -304
l-75 -12 -3 -361 -2 -362 37 -6 c182 -26 265 -65 373 -173 58 -58 86 -96 113
-152 36 -77 57 -155 57 -215 l0 -35 368 0 368 0 -4 68 c-15 288 -133 574 -330
800 l-64 73 49 55 c209 239 333 532 345 819 l3 70 -367 3 -368 2 0 -41z"/>
<path d="M2047 1893 c-4 -3 -7 -134 -7 -290 l0 -283 290 0 290 0 0 290 0 290
-283 0 c-156 0 -287 -3 -290 -7z"/>
</g>
</svg>
